<svg xmlns="http://www.w3.org/2000/svg" viewBox="0 0 200 200">
  <defs>
    <linearGradient id="grad1" x1="0%" y1="0%" x2="100%" y2="100%">
      <stop offset="0%" style="stop-color:#00C9FF;stop-opacity:1" />
      <stop offset="100%" style="stop-color:#92FE9D;stop-opacity:1" />
    </linearGradient>
    <filter id="shadow" x="-20%" y="-20%" width="140%" height="140%">
      <feGaussianBlur stdDeviation="2 2" result="shadow"/>
      <feComponentTransfer>
        <feFuncA type="linear" slope="0.2"/>
      </feComponentTransfer>
    </filter>
  </defs>
  
  <rect width="200" height="200" fill="#FFFFFF" />
  
  <path d="M100 30 Q130 30 150 50 Q170 70 170 100 Q170 130 150 150 Q130 170 100 170 Q70 170 50 150 Q30 130 30 100 Q30 70 50 50 Q70 30 100 30 Z" fill="url(#grad1)" filter="url(#shadow)" />
  
  <path d="M100 30 L100 170 M30 100 L170 100 M50 50 L150 150 M50 150 L150 50" stroke="#FFFFFF" stroke-width="2" fill="none" />

  <circle cx="100" cy="100" r="8" fill="#FFFFFF" />
  <circle cx="70" cy="70" r="5" fill="#FFFFFF" />
  <circle cx="130" cy="70" r="5" fill="#FFFFFF" />
  <circle cx="70" cy="130" r="5" fill="#FFFFFF" />
  <circle cx="130" cy="130" r="5" fill="#FFFFFF" />
  

  <circle cx="100" cy="100" r="40" stroke="#FFFFFF" stroke-width="2" fill="none">
    <animate attributeName="r" values="40;45;40" dur="2s" repeatCount="indefinite" />
    <animate attributeName="opacity" values="1;0;1" dur="2s" repeatCount="indefinite" />
  </circle>
  
  <text x="100" y="195" font-family="Arial, sans-serif" font-size="16" fill="#333333" text-anchor="middle" font-weight="bold">NutriPulse</text>
</svg>