<svg xmlns="http://www.w3.org/2000/svg" viewBox="0 0 100 100">
  <defs>
    <linearGradient id="bg-gradient" x1="0%" y1="0%" x2="100%" y2="100%">
      <stop offset="0%" style="stop-color:#1a5928;stop-opacity:1" />
      <stop offset="50%" style="stop-color:#2ecc71;stop-opacity:1" />
      <stop offset="100%" style="stop-color:#1a5928;stop-opacity:1" />
    </linearGradient>
    <radialGradient id="shine-gradient" cx="50%" cy="50%" r="50%" fx="50%" fy="50%">
      <stop offset="0%" style="stop-color:#ffffff;stop-opacity:0.5" />
      <stop offset="100%" style="stop-color:#ffffff;stop-opacity:0" />
    </radialGradient>
    <filter id="soft-shadow">
      <feGaussianBlur in="SourceAlpha" stdDeviation="3"/>
      <feOffset dx="0" dy="2" result="offsetblur"/>
      <feComponentTransfer>
        <feFuncA type="linear" slope="0.5"/>
      </feComponentTransfer>
      <feMerge> 
        <feMergeNode/>
        <feMergeNode in="SourceGraphic"/> 
      </feMerge>
    </filter>
  </defs>
  
  <!-- Background -->
  <rect width="100" height="100" rx="25" fill="url(#bg-gradient)"/>
  
  <!-- Shine effect -->
  <circle cx="25" cy="25" r="65" fill="url(#shine-gradient)"/>
  
  <!-- Vault door frame -->
  <rect x="20" y="15" width="60" height="70" rx="5" fill="#e0e0e0" filter="url(#soft-shadow)"/>
  
  <!-- Vault door -->
  <rect x="25" y="20" width="50" height="60" rx="3" fill="#f8f9fa" filter="url(#soft-shadow)"/>
  
  <!-- Lock mechanism -->
  <circle cx="50" cy="50" r="18" fill="#e0e0e0" stroke="#2ecc71" stroke-width="2"/>
  <circle cx="50" cy="50" r="15" fill="#f8f9fa"/>
  <path d="M50 36 L50 50 L60 55" stroke="#2ecc71" stroke-width="3" stroke-linecap="round" stroke-linejoin="round"/>
  
  <!-- Door handle -->
  <rect x="65" y="45" width="8" height="10" rx="2" fill="#2ecc71"/>
  
  <!-- Bolts -->
  <rect x="22" y="25" width="4" height="6" rx="1" fill="#2ecc71"/>
  <rect x="22" y="69" width="4" height="6" rx="1" fill="#2ecc71"/>
  
  <!-- Subtle logo hint -->
  <path d="M40 80 L60 80 L55 75 L45 75 Z" fill="#2ecc71" opacity="0.7"/>
  
  <!-- Reflection -->
  <rect x="25" y="20" width="50" height="10" fill="url(#shine-gradient)" opacity="0.3"/>
</svg>