<svg xmlns="http://www.w3.org/2000/svg" viewBox="0 0 100 100" width="32" height="32">
  <defs>
    <linearGradient id="goldRed" x1="0%" y1="0%" x2="100%" y2="100%">
      <stop offset="0%" style="stop-color:#FFD700"/>
      <stop offset="100%" style="stop-color:#B22222"/>
    </linearGradient>
    <linearGradient id="metal" x1="0%" y1="0%" x2="100%" y2="100%">
      <stop offset="0%" style="stop-color:#EEE"/>
      <stop offset="50%" style="stop-color:#999"/>
      <stop offset="100%" style="stop-color:#EEE"/>
    </linearGradient>
    <filter id="shadow">
      <feDropShadow dx="0" dy="2" stdDeviation="2" flood-opacity="0.3"/>
    </filter>
    <filter id="inner-shadow">
      <feOffset dx="0" dy="1"/>
      <feGaussianBlur stdDeviation="1"/>
      <feComposite operator="out" in="SourceGraphic"/>
      <feComponentTransfer>
        <feFuncA type="linear" slope="0.5"/>
      </feComponentTransfer>
      <feBlend mode="multiply" in2="SourceGraphic"/>
    </filter>
  </defs>
  
  <!-- Tło sejfu -->
  <rect x="5" y="5" width="90" height="90" rx="10" ry="10" fill="url(#goldRed)" filter="url(#shadow)"/>
  
  <!-- Tekstura metaliczna -->
  <rect x="5" y="5" width="90" height="90" rx="10" ry="10" fill="url(#metal)" opacity="0.1"/>
  
  <!-- Rama drzwi sejfu -->
  <rect x="15" y="15" width="70" height="70" rx="5" ry="5" fill="none" stroke="#f0f0f0" stroke-width="3" filter="url(#inner-shadow)"/>
  
  <!-- Drzwi sejfu -->
  <rect x="18" y="18" width="64" height="64" rx="3" ry="3" fill="url(#metal)" stroke="#BBB" stroke-width="1" filter="url(#inner-shadow)"/>
  
  <!-- Pokrętło sejfu -->
  <g id="dial">
    <circle cx="65" cy="50" r="15" fill="url(#metal)" stroke="#BBB" stroke-width="1"/>
    <circle cx="65" cy="50" r="12" fill="#333"/>
    <circle cx="65" cy="50" r="10" fill="url(#goldRed)"/>
    <path d="M65 40 L65 42 M65 58 L65 60 M55 50 L57 50 M73 50 L75 50" stroke="#f0f0f0" stroke-width="2" stroke-linecap="round"/>
    <circle cx="65" cy="41" r="2" fill="#f0f0f0"/>
    <animateTransform attributeName="transform" attributeType="XML" type="rotate" from="0 65 50" to="360 65 50" dur="10s" repeatCount="indefinite"/>
  </g>
  
  <!-- Zawiasy -->
  <rect x="10" y="30" width="10" height="6" rx="2" ry="2" fill="url(#metal)" stroke="#BBB" stroke-width="1" filter="url(#inner-shadow)"/>
  <rect x="10" y="65" width="10" height="6" rx="2" ry="2" fill="url(#metal)" stroke="#BBB" stroke-width="1" filter="url(#inner-shadow)"/>
  
  <!-- Bolce -->
  <rect x="80" y="30" width="12" height="6" rx="1" ry="1" fill="#333" filter="url(#inner-shadow)">
    <animate attributeName="x" values="80;78;80" dur="2s" repeatCount="indefinite"/>
  </rect>
  <rect x="80" y="65" width="12" height="6" rx="1" ry="1" fill="#333" filter="url(#inner-shadow)">
    <animate attributeName="x" values="80;78;80" dur="2s" repeatCount="indefinite" begin="1s"/>
  </rect>
  
  <!-- Efekt połysku -->
  <path d="M15 15 L85 15 L75 25 L25 25 Z" fill="#FFF" opacity="0.2"/>
  
  <!-- Odblaski -->
  <circle cx="20" cy="20" r="1" fill="#FFF" opacity="0.6">
    <animate attributeName="opacity" values="0.6;0.2;0.6" dur="3s" repeatCount="indefinite"/>
  </circle>
  <circle cx="80" cy="20" r="1" fill="#FFF" opacity="0.6">
    <animate attributeName="opacity" values="0.6;0.2;0.6" dur="3s" repeatCount="indefinite" begin="1.5s"/>
  </circle>
</svg>