<svg xmlns="http://www.w3.org/2000/svg" viewBox="0 0 100 100">
  <defs>
    <linearGradient id="bg-gradient" x1="0%" y1="0%" x2="100%" y2="100%">
      <stop offset="0%" style="stop-color:#053f3c"/>
      <stop offset="50%" style="stop-color:#065f46"/>
      <stop offset="100%" style="stop-color:#0d9488"/>
    </linearGradient>
    <linearGradient id="door-gradient" x1="0%" y1="0%" x2="100%" y2="100%">
      <stop offset="0%" style="stop-color:#e2e8f0"/>
      <stop offset="100%" style="stop-color:#94a3b8"/>
    </linearGradient>
    <filter id="shadow" x="-20%" y="-20%" width="140%" height="140%">
      <feGaussianBlur in="SourceAlpha" stdDeviation="2"/>
      <feOffset dx="0" dy="2" result="offsetblur"/>
      <feComponentTransfer>
        <feFuncA type="linear" slope="0.3"/>
      </feComponentTransfer>
      <feMerge> 
        <feMergeNode/>
        <feMergeNode in="SourceGraphic"/> 
      </feMerge>
    </filter>
  </defs>
  
  <!-- Background hexagon -->
  <path d="M50 5 L87 25 L87 75 L50 95 L13 75 L13 25 Z" fill="url(#bg-gradient)" filter="url(#shadow)"/>
  
  <!-- Vault door (shield shape) -->
  <path d="M50 20 L75 35 L75 70 L50 85 L25 70 L25 35 Z" fill="url(#door-gradient)" filter="url(#shadow)"/>
  
  <!-- New abstract lock mechanism -->
  <circle cx="50" cy="52" r="18" fill="#0d9488" opacity="0.1"/>
  
  <!-- Central diamond -->
  <rect x="45" y="47" width="10" height="10" fill="#0d9488" transform="rotate(45 50 52)"/>
  
  <!-- Surrounding lines -->
  <line x1="35" y1="52" x2="65" y2="52" stroke="#0d9488" stroke-width="2"/>
  <line x1="50" y1="37" x2="50" y2="67" stroke="#0d9488" stroke-width="2"/>
  
  <!-- Corner accents -->
  <circle cx="35" cy="37" r="1.5" fill="#C0C0C0"/>
  <circle cx="65" cy="37" r="1.5" fill="#C0C0C0"/>
  <circle cx="35" cy="67" r="1.5" fill="#C0C0C0"/>
  <circle cx="65" cy="67" r="1.5" fill="#C0C0C0"/>
</svg>