<svg width="199" height="206" viewBox="0 0 199 206" fill="none" xmlns="http://www.w3.org/2000/svg">
<g filter="url(#filter0_d_18_8)">
<path d="M164.66 68C164.66 104.186 135.475 133.5 99.5 133.5C63.5249 133.5 34.34 104.186 34.34 68C34.34 31.8135 63.5249 2.5 99.5 2.5C135.475 2.5 164.66 31.8135 164.66 68Z" stroke="url(#paint0_linear_18_8)" stroke-width="5" stroke-linecap="square"/>
<path d="M164.66 68C164.66 104.186 135.475 133.5 99.5 133.5C63.5249 133.5 34.34 104.186 34.34 68C34.34 31.8135 63.5249 2.5 99.5 2.5C135.475 2.5 164.66 31.8135 164.66 68Z" stroke="url(#paint1_linear_18_8)" stroke-opacity="0.2" stroke-width="5" stroke-linecap="square"/>
<path d="M53.5281 147.501C53.5281 148.893 53.0481 150.053 52.0881 150.981C51.1441 151.893 49.6961 152.349 47.7441 152.349H44.5281V159.333H42.3441V142.605H47.7441C49.6321 142.605 51.0641 143.061 52.0401 143.973C53.0321 144.885 53.5281 146.061 53.5281 147.501ZM47.7441 150.549C48.9601 150.549 49.8561 150.285 50.4321 149.757C51.0081 149.229 51.2961 148.477 51.2961 147.501C51.2961 145.437 50.1121 144.405 47.7441 144.405H44.5281V150.549H47.7441ZM65.0505 159.333L61.0665 152.493H58.4265V159.333H56.2425V142.605H61.6425C62.9065 142.605 63.9705 142.821 64.8345 143.253C65.7145 143.685 66.3705 144.269 66.8025 145.005C67.2345 145.741 67.4505 146.581 67.4505 147.525C67.4505 148.677 67.1145 149.693 66.4425 150.573C65.7865 151.453 64.7945 152.037 63.4665 152.325L67.6665 159.333H65.0505ZM58.4265 150.741H61.6425C62.8265 150.741 63.7145 150.453 64.3065 149.877C64.8985 149.285 65.1945 148.501 65.1945 147.525C65.1945 146.533 64.8985 145.765 64.3065 145.221C63.7305 144.677 62.8425 144.405 61.6425 144.405H58.4265V150.741ZM78.4281 159.501C76.8761 159.501 75.4601 159.141 74.1801 158.421C72.9001 157.685 71.8841 156.669 71.1321 155.373C70.3961 154.061 70.0281 152.589 70.0281 150.957C70.0281 149.325 70.3961 147.861 71.1321 146.565C71.8841 145.253 72.9001 144.237 74.1801 143.517C75.4601 142.781 76.8761 142.413 78.4281 142.413C79.9961 142.413 81.4201 142.781 82.7001 143.517C83.9801 144.237 84.9881 145.245 85.7241 146.541C86.4601 147.837 86.8281 149.309 86.8281 150.957C86.8281 152.605 86.4601 154.077 85.7241 155.373C84.9881 156.669 83.9801 157.685 82.7001 158.421C81.4201 159.141 79.9961 159.501 78.4281 159.501ZM78.4281 157.605C79.5961 157.605 80.6441 157.333 81.5721 156.789C82.5161 156.245 83.2521 155.469 83.7801 154.461C84.3241 153.453 84.5961 152.285 84.5961 150.957C84.5961 149.613 84.3241 148.445 83.7801 147.453C83.2521 146.445 82.5241 145.669 81.5961 145.125C80.6681 144.581 79.6121 144.309 78.4281 144.309C77.2441 144.309 76.1881 144.581 75.2601 145.125C74.3321 145.669 73.5961 146.445 73.0521 147.453C72.5241 148.445 72.2601 149.613 72.2601 150.957C72.2601 152.285 72.5241 153.453 73.0521 154.461C73.5961 155.469 74.3321 156.245 75.2601 156.789C76.2041 157.333 77.2601 157.605 78.4281 157.605ZM98.1353 142.605V154.965C98.1353 156.341 97.7113 157.445 96.8633 158.277C96.0153 159.093 94.8953 159.501 93.5033 159.501C92.0953 159.501 90.9673 159.085 90.1193 158.253C89.2713 157.405 88.8473 156.253 88.8473 154.797H91.0313C91.0473 155.613 91.2553 156.277 91.6553 156.789C92.0713 157.301 92.6873 157.557 93.5033 157.557C94.3193 157.557 94.9273 157.317 95.3273 156.837C95.7273 156.341 95.9273 155.717 95.9273 154.965V142.605H98.1353ZM104.622 144.381V149.973H110.718V151.773H104.622V157.533H111.438V159.333H102.438V142.581H111.438V144.381H104.622ZM113.927 150.957C113.927 149.325 114.295 147.861 115.031 146.565C115.767 145.253 116.767 144.229 118.031 143.493C119.311 142.757 120.727 142.389 122.279 142.389C124.103 142.389 125.695 142.829 127.055 143.709C128.415 144.589 129.407 145.837 130.031 147.453H127.415C126.951 146.445 126.279 145.669 125.399 145.125C124.535 144.581 123.495 144.309 122.279 144.309C121.111 144.309 120.063 144.581 119.135 145.125C118.207 145.669 117.479 146.445 116.951 147.453C116.423 148.445 116.159 149.613 116.159 150.957C116.159 152.285 116.423 153.453 116.951 154.461C117.479 155.453 118.207 156.221 119.135 156.765C120.063 157.309 121.111 157.581 122.279 157.581C123.495 157.581 124.535 157.317 125.399 156.789C126.279 156.245 126.951 155.469 127.415 154.461H130.031C129.407 156.061 128.415 157.301 127.055 158.181C125.695 159.045 124.103 159.477 122.279 159.477C120.727 159.477 119.311 159.117 118.031 158.397C116.767 157.661 115.767 156.645 115.031 155.349C114.295 154.053 113.927 152.589 113.927 150.957ZM143.578 142.605V144.381H139.018V159.333H136.834V144.381H132.25V142.605H143.578ZM151.57 159.501C150.466 159.501 149.474 159.309 148.594 158.925C147.73 158.525 147.05 157.981 146.554 157.293C146.058 156.589 145.802 155.781 145.786 154.869H148.114C148.194 155.653 148.514 156.317 149.074 156.861C149.65 157.389 150.482 157.653 151.57 157.653C152.61 157.653 153.426 157.397 154.018 156.885C154.626 156.357 154.93 155.685 154.93 154.869C154.93 154.229 154.754 153.709 154.402 153.309C154.05 152.909 153.61 152.605 153.082 152.397C152.554 152.189 151.842 151.965 150.946 151.725C149.842 151.437 148.954 151.149 148.282 150.861C147.626 150.573 147.058 150.125 146.578 149.517C146.114 148.893 145.882 148.061 145.882 147.021C145.882 146.109 146.114 145.301 146.578 144.597C147.042 143.893 147.69 143.349 148.522 142.965C149.37 142.581 150.338 142.389 151.426 142.389C152.994 142.389 154.274 142.781 155.266 143.565C156.274 144.349 156.842 145.389 156.97 146.685H154.57C154.49 146.045 154.154 145.485 153.562 145.005C152.97 144.509 152.186 144.261 151.21 144.261C150.298 144.261 149.554 144.501 148.978 144.981C148.402 145.445 148.114 146.101 148.114 146.949C148.114 147.557 148.282 148.053 148.618 148.437C148.97 148.821 149.394 149.117 149.89 149.325C150.402 149.517 151.114 149.741 152.026 149.997C153.13 150.301 154.018 150.605 154.69 150.909C155.362 151.197 155.938 151.653 156.418 152.277C156.898 152.885 157.138 153.717 157.138 154.773C157.138 155.589 156.922 156.357 156.49 157.077C156.058 157.797 155.418 158.381 154.57 158.829C153.722 159.277 152.722 159.501 151.57 159.501Z" fill="white"/>
<path d="M69.4914 178.212V179.059H65.1024V178.212H69.4914ZM76.496 177.244C76.496 177.882 76.276 178.413 75.836 178.839C75.4033 179.257 74.7396 179.466 73.845 179.466H72.371V182.667H71.37V175H73.845C74.7103 175 75.3666 175.209 75.814 175.627C76.2686 176.045 76.496 176.584 76.496 177.244ZM73.845 178.641C74.4023 178.641 74.813 178.52 75.077 178.278C75.341 178.036 75.473 177.691 75.473 177.244C75.473 176.298 74.9303 175.825 73.845 175.825H72.371V178.641H73.845ZM81.2161 182.744C80.5047 182.744 79.8557 182.579 79.2691 182.249C78.6824 181.911 78.2167 181.446 77.8721 180.852C77.5347 180.25 77.3661 179.576 77.3661 178.828C77.3661 178.08 77.5347 177.409 77.8721 176.815C78.2167 176.213 78.6824 175.748 79.2691 175.418C79.8557 175.08 80.5047 174.912 81.2161 174.912C81.9347 174.912 82.5874 175.08 83.1741 175.418C83.7607 175.748 84.2227 176.21 84.5601 176.804C84.8974 177.398 85.0661 178.072 85.0661 178.828C85.0661 179.583 84.8974 180.258 84.5601 180.852C84.2227 181.446 83.7607 181.911 83.1741 182.249C82.5874 182.579 81.9347 182.744 81.2161 182.744ZM81.2161 181.875C81.7514 181.875 82.2317 181.75 82.6571 181.501C83.0897 181.251 83.4271 180.896 83.6691 180.434C83.9184 179.972 84.0431 179.436 84.0431 178.828C84.0431 178.212 83.9184 177.676 83.6691 177.222C83.4271 176.76 83.0934 176.404 82.6681 176.155C82.2427 175.905 81.7587 175.781 81.2161 175.781C80.6734 175.781 80.1894 175.905 79.7641 176.155C79.3387 176.404 79.0014 176.76 78.7521 177.222C78.5101 177.676 78.3891 178.212 78.3891 178.828C78.3891 179.436 78.5101 179.972 78.7521 180.434C79.0014 180.896 79.3387 181.251 79.7641 181.501C80.1967 181.75 80.6807 181.875 81.2161 181.875ZM90.4245 182.667L88.5985 179.532H87.3885V182.667H86.3875V175H88.8625C89.4419 175 89.9295 175.099 90.3255 175.297C90.7289 175.495 91.0295 175.762 91.2275 176.1C91.4255 176.437 91.5245 176.822 91.5245 177.255C91.5245 177.783 91.3705 178.248 91.0625 178.652C90.7619 179.055 90.3072 179.323 89.6985 179.455L91.6235 182.667H90.4245ZM87.3885 178.729H88.8625C89.4052 178.729 89.8122 178.597 90.0835 178.333C90.3549 178.061 90.4905 177.702 90.4905 177.255C90.4905 176.8 90.3549 176.448 90.0835 176.199C89.8195 175.949 89.4125 175.825 88.8625 175.825H87.3885V178.729ZM97.7989 175V175.814H95.7089V182.667H94.7079V175.814H92.6069V175H97.7989ZM103.365 175V175.814H100.032V178.399H102.738V179.213H100.032V182.667H99.0311V175H103.365ZM108.05 182.744C107.339 182.744 106.69 182.579 106.103 182.249C105.516 181.911 105.051 181.446 104.706 180.852C104.369 180.25 104.2 179.576 104.2 178.828C104.2 178.08 104.369 177.409 104.706 176.815C105.051 176.213 105.516 175.748 106.103 175.418C106.69 175.08 107.339 174.912 108.05 174.912C108.769 174.912 109.421 175.08 110.008 175.418C110.595 175.748 111.057 176.21 111.394 176.804C111.731 177.398 111.9 178.072 111.9 178.828C111.9 179.583 111.731 180.258 111.394 180.852C111.057 181.446 110.595 181.911 110.008 182.249C109.421 182.579 108.769 182.744 108.05 182.744ZM108.05 181.875C108.585 181.875 109.066 181.75 109.491 181.501C109.924 181.251 110.261 180.896 110.503 180.434C110.752 179.972 110.877 179.436 110.877 178.828C110.877 178.212 110.752 177.676 110.503 177.222C110.261 176.76 109.927 176.404 109.502 176.155C109.077 175.905 108.593 175.781 108.05 175.781C107.507 175.781 107.023 175.905 106.598 176.155C106.173 176.404 105.835 176.76 105.586 177.222C105.344 177.676 105.223 178.212 105.223 178.828C105.223 179.436 105.344 179.972 105.586 180.434C105.835 180.896 106.173 181.251 106.598 181.501C107.031 181.75 107.515 181.875 108.05 181.875ZM114.223 181.853H116.907V182.667H113.222V175H114.223V181.853ZM118.971 175V182.667H117.97V175H118.971ZM124.153 182.744C123.441 182.744 122.792 182.579 122.206 182.249C121.619 181.911 121.153 181.446 120.809 180.852C120.471 180.25 120.303 179.576 120.303 178.828C120.303 178.08 120.471 177.409 120.809 176.815C121.153 176.213 121.619 175.748 122.206 175.418C122.792 175.08 123.441 174.912 124.153 174.912C124.871 174.912 125.524 175.08 126.111 175.418C126.697 175.748 127.159 176.21 127.497 176.804C127.834 177.398 128.003 178.072 128.003 178.828C128.003 179.583 127.834 180.258 127.497 180.852C127.159 181.446 126.697 181.911 126.111 182.249C125.524 182.579 124.871 182.744 124.153 182.744ZM124.153 181.875C124.688 181.875 125.168 181.75 125.594 181.501C126.026 181.251 126.364 180.896 126.606 180.434C126.855 179.972 126.98 179.436 126.98 178.828C126.98 178.212 126.855 177.676 126.606 177.222C126.364 176.76 126.03 176.404 125.605 176.155C125.179 175.905 124.695 175.781 124.153 175.781C123.61 175.781 123.126 175.905 122.701 176.155C122.275 176.404 121.938 176.76 121.689 177.222C121.447 177.676 121.326 178.212 121.326 178.828C121.326 179.436 121.447 179.972 121.689 180.434C121.938 180.896 122.275 181.251 122.701 181.501C123.133 181.75 123.617 181.875 124.153 181.875ZM133.504 178.212V179.059H129.115V178.212H133.504Z" fill="white"/>
</g>
<path d="M73.4582 69L68.6582 26.1H78.2582L81.7982 57.42L93.7382 48.24V26.1H103.338V48.3L115.158 57.42L118.758 26.1H128.358L123.558 69H115.518L98.5382 55.26L81.4982 69H73.4582Z" fill="url(#paint2_linear_18_8)"/>
<path d="M73.4582 69L68.6582 26.1H78.2582L81.7982 57.42L93.7382 48.24V26.1H103.338V48.3L115.158 57.42L118.758 26.1H128.358L123.558 69H115.518L98.5382 55.26L81.4982 69H73.4582Z" fill="url(#paint3_linear_18_8)" fill-opacity="0.86"/>
<path d="M103.617 110.761C99.3393 114.854 95.47 117.116 92.0089 117.549C88.549 117.925 85.3121 116.538 82.298 113.388C81.5791 112.636 80.933 111.787 80.3598 110.841L87.2965 104.205C87.5982 104.636 87.9005 105.038 88.2034 105.413C88.5063 105.787 88.7684 106.09 88.9896 106.321C90.5104 107.911 92.1261 108.414 93.8365 107.829C95.5192 107.216 97.3722 105.941 99.3954 104.005L102.127 101.392C104.583 99.0419 105.944 96.9926 106.209 95.2444C106.476 93.4397 105.558 91.439 103.456 89.2424L84.418 69.3428L91.3547 62.7063L110.393 82.6059C112.826 85.1494 114.455 87.6326 115.278 90.0555C116.102 92.4785 116.004 94.9801 114.985 97.5603C113.938 100.112 111.84 102.894 108.689 105.908L103.617 110.761Z" fill="url(#paint4_linear_18_8)"/>
<path d="M71.8125 82V80.02H78.2025C79.1025 80.02 79.8125 79.81 80.3325 79.39C80.8525 78.97 81.1825 78.375 81.3225 77.605H74.1525C73.1225 77.605 72.3175 77.32 71.7375 76.75C71.1575 76.18 70.8675 75.42 70.8675 74.47C70.8675 73.51 71.1575 72.745 71.7375 72.175C72.3175 71.595 73.1225 71.305 74.1525 71.305H78.4125C79.5825 71.305 80.5825 71.525 81.4125 71.965C82.2425 72.405 82.8775 73.025 83.3175 73.825C83.7575 74.625 83.9775 75.565 83.9775 76.645C83.9775 77.725 83.7575 78.665 83.3175 79.465C82.8775 80.265 82.2425 80.89 81.4125 81.34C80.5825 81.78 79.5825 82 78.4125 82H71.8125ZM74.6175 75.655H81.3225C81.1725 74.885 80.8325 74.295 80.3025 73.885C79.7825 73.475 79.0725 73.27 78.1725 73.27H74.6175C73.8375 73.27 73.4475 73.67 73.4475 74.47C73.4475 75.26 73.8375 75.655 74.6175 75.655Z" fill="url(#paint5_linear_18_8)"/>
<path d="M117.937 82.015C116.377 82.015 115.167 81.545 114.307 80.605C113.447 79.655 113.017 78.33 113.017 76.63C113.017 74.78 113.552 73.425 114.622 72.565C115.702 71.705 117.207 71.275 119.137 71.275H125.182V73.225H119.302C118.212 73.225 117.347 73.41 116.707 73.78C116.077 74.14 115.687 74.775 115.537 75.685H122.542C123.652 75.685 124.527 75.965 125.167 76.525C125.807 77.075 126.127 77.84 126.127 78.82C126.127 79.83 125.807 80.615 125.167 81.175C124.527 81.735 123.652 82.015 122.542 82.015H117.937ZM118.102 80.065H122.077C122.627 80.065 123.052 79.965 123.352 79.765C123.652 79.555 123.802 79.245 123.802 78.835C123.802 78.435 123.652 78.135 123.352 77.935C123.052 77.735 122.627 77.635 122.077 77.635H115.537C115.767 79.255 116.622 80.065 118.102 80.065Z" fill="url(#paint6_linear_18_8)"/>
<defs>
<filter id="filter0_d_18_8" x="-4" y="0" width="207" height="208" filterUnits="userSpaceOnUse" color-interpolation-filters="sRGB">
<feFlood flood-opacity="0" result="BackgroundImageFix"/>
<feColorMatrix in="SourceAlpha" type="matrix" values="0 0 0 0 0 0 0 0 0 0 0 0 0 0 0 0 0 0 127 0" result="hardAlpha"/>
<feOffset dy="4"/>
<feGaussianBlur stdDeviation="2"/>
<feComposite in2="hardAlpha" operator="out"/>
<feColorMatrix type="matrix" values="0 0 0 0 0 0 0 0 0 0 0 0 0 0 0 0 0 0 0.25 0"/>
<feBlend mode="normal" in2="BackgroundImageFix" result="effect1_dropShadow_18_8"/>
<feBlend mode="normal" in="SourceGraphic" in2="effect1_dropShadow_18_8" result="shape"/>
</filter>
<linearGradient id="paint0_linear_18_8" x1="99.5" y1="0" x2="99.5" y2="136" gradientUnits="userSpaceOnUse">
<stop stop-color="white"/>
<stop offset="0.485" stop-color="#F9F9F9"/>
<stop offset="0.751" stop-color="#999999"/>
</linearGradient>
<linearGradient id="paint1_linear_18_8" x1="99.5" y1="0" x2="99.5" y2="136" gradientUnits="userSpaceOnUse">
<stop stop-color="white" stop-opacity="0"/>
<stop offset="0.0001" stop-color="white"/>
</linearGradient>
<linearGradient id="paint2_linear_18_8" x1="97.6373" y1="13" x2="97.6373" y2="43.9855" gradientUnits="userSpaceOnUse">
<stop offset="0.581" stop-color="#909090"/>
<stop offset="0.89" stop-color="#2A2A2A"/>
</linearGradient>
<linearGradient id="paint3_linear_18_8" x1="97.8492" y1="13" x2="97.8492" y2="46" gradientUnits="userSpaceOnUse">
<stop offset="0.225" stop-color="white" stop-opacity="0"/>
<stop offset="0.87" stop-color="white"/>
</linearGradient>
<linearGradient id="paint4_linear_18_8" x1="68.3204" y1="66.614" x2="127.729" y2="128.71" gradientUnits="userSpaceOnUse">
<stop offset="0.055" stop-color="white"/>
<stop offset="1" stop-color="#999999"/>
</linearGradient>
<linearGradient id="paint5_linear_18_8" x1="77.5" y1="68" x2="77.5" y2="86" gradientUnits="userSpaceOnUse">
<stop offset="0.03" stop-color="white"/>
<stop offset="1" stop-color="#999999"/>
</linearGradient>
<linearGradient id="paint6_linear_18_8" x1="119.5" y1="68" x2="119.5" y2="86" gradientUnits="userSpaceOnUse">
<stop offset="0.01" stop-color="white"/>
<stop offset="1" stop-color="#999999"/>
</linearGradient>
</defs>
</svg>
