<svg width="199" height="207" viewBox="0 0 199 207" fill="none" xmlns="http://www.w3.org/2000/svg">
<g filter="url(#filter0_d_18_8)">
<path d="M164.66 68C164.66 104.186 135.475 133.5 99.5 133.5C63.5249 133.5 34.34 104.186 34.34 68C34.34 31.8135 63.5249 2.5 99.5 2.5C135.475 2.5 164.66 31.8135 164.66 68Z" stroke="url(#paint0_linear_18_8)" stroke-width="5" stroke-linecap="square"/>
<path d="M164.66 68C164.66 104.186 135.475 133.5 99.5 133.5C63.5249 133.5 34.34 104.186 34.34 68C34.34 31.8135 63.5249 2.5 99.5 2.5C135.475 2.5 164.66 31.8135 164.66 68Z" stroke="url(#paint1_linear_18_8)" stroke-opacity="0.2" stroke-width="5" stroke-linecap="square"/>
<path d="M53.5281 147.501C53.5281 148.893 53.0481 150.053 52.0881 150.981C51.1441 151.893 49.6961 152.349 47.7441 152.349H44.5281V159.333H42.3441V142.605H47.7441C49.6321 142.605 51.0641 143.061 52.0401 143.973C53.0321 144.885 53.5281 146.061 53.5281 147.501ZM47.7441 150.549C48.9601 150.549 49.8561 150.285 50.4321 149.757C51.0081 149.229 51.2961 148.477 51.2961 147.501C51.2961 145.437 50.1121 144.405 47.7441 144.405H44.5281V150.549H47.7441ZM65.0505 159.333L61.0665 152.493H58.4265V159.333H56.2425V142.605H61.6425C62.9065 142.605 63.9705 142.821 64.8345 143.253C65.7145 143.685 66.3705 144.269 66.8025 145.005C67.2345 145.741 67.4505 146.581 67.4505 147.525C67.4505 148.677 67.1145 149.693 66.4425 150.573C65.7865 151.453 64.7945 152.037 63.4665 152.325L67.6665 159.333H65.0505ZM58.4265 150.741H61.6425C62.8265 150.741 63.7145 150.453 64.3065 149.877C64.8985 149.285 65.1945 148.501 65.1945 147.525C65.1945 146.533 64.8985 145.765 64.3065 145.221C63.7305 144.677 62.8425 144.405 61.6425 144.405H58.4265V150.741ZM78.4281 159.501C76.8761 159.501 75.4601 159.141 74.1801 158.421C72.9001 157.685 71.8841 156.669 71.1321 155.373C70.3961 154.061 70.0281 152.589 70.0281 150.957C70.0281 149.325 70.3961 147.861 71.1321 146.565C71.8841 145.253 72.9001 144.237 74.1801 143.517C75.4601 142.781 76.8761 142.413 78.4281 142.413C79.9961 142.413 81.4201 142.781 82.7001 143.517C83.9801 144.237 84.9881 145.245 85.7241 146.541C86.4601 147.837 86.8281 149.309 86.8281 150.957C86.8281 152.605 86.4601 154.077 85.7241 155.373C84.9881 156.669 83.9801 157.685 82.7001 158.421C81.4201 159.141 79.9961 159.501 78.4281 159.501ZM78.4281 157.605C79.5961 157.605 80.6441 157.333 81.5721 156.789C82.5161 156.245 83.2521 155.469 83.7801 154.461C84.3241 153.453 84.5961 152.285 84.5961 150.957C84.5961 149.613 84.3241 148.445 83.7801 147.453C83.2521 146.445 82.5241 145.669 81.5961 145.125C80.6681 144.581 79.6121 144.309 78.4281 144.309C77.2441 144.309 76.1881 144.581 75.2601 145.125C74.3321 145.669 73.5961 146.445 73.0521 147.453C72.5241 148.445 72.2601 149.613 72.2601 150.957C72.2601 152.285 72.5241 153.453 73.0521 154.461C73.5961 155.469 74.3321 156.245 75.2601 156.789C76.2041 157.333 77.2601 157.605 78.4281 157.605ZM98.1353 142.605V154.965C98.1353 156.341 97.7113 157.445 96.8633 158.277C96.0153 159.093 94.8953 159.501 93.5033 159.501C92.0953 159.501 90.9673 159.085 90.1193 158.253C89.2713 157.405 88.8473 156.253 88.8473 154.797H91.0313C91.0473 155.613 91.2553 156.277 91.6553 156.789C92.0713 157.301 92.6873 157.557 93.5033 157.557C94.3193 157.557 94.9273 157.317 95.3273 156.837C95.7273 156.341 95.9273 155.717 95.9273 154.965V142.605H98.1353ZM104.622 144.381V149.973H110.718V151.773H104.622V157.533H111.438V159.333H102.438V142.581H111.438V144.381H104.622ZM113.927 150.957C113.927 149.325 114.295 147.861 115.031 146.565C115.767 145.253 116.767 144.229 118.031 143.493C119.311 142.757 120.727 142.389 122.279 142.389C124.103 142.389 125.695 142.829 127.055 143.709C128.415 144.589 129.407 145.837 130.031 147.453H127.415C126.951 146.445 126.279 145.669 125.399 145.125C124.535 144.581 123.495 144.309 122.279 144.309C121.111 144.309 120.063 144.581 119.135 145.125C118.207 145.669 117.479 146.445 116.951 147.453C116.423 148.445 116.159 149.613 116.159 150.957C116.159 152.285 116.423 153.453 116.951 154.461C117.479 155.453 118.207 156.221 119.135 156.765C120.063 157.309 121.111 157.581 122.279 157.581C123.495 157.581 124.535 157.317 125.399 156.789C126.279 156.245 126.951 155.469 127.415 154.461H130.031C129.407 156.061 128.415 157.301 127.055 158.181C125.695 159.045 124.103 159.477 122.279 159.477C120.727 159.477 119.311 159.117 118.031 158.397C116.767 157.661 115.767 156.645 115.031 155.349C114.295 154.053 113.927 152.589 113.927 150.957ZM143.578 142.605V144.381H139.018V159.333H136.834V144.381H132.25V142.605H143.578ZM151.57 159.501C150.466 159.501 149.474 159.309 148.594 158.925C147.73 158.525 147.05 157.981 146.554 157.293C146.058 156.589 145.802 155.781 145.786 154.869H148.114C148.194 155.653 148.514 156.317 149.074 156.861C149.65 157.389 150.482 157.653 151.57 157.653C152.61 157.653 153.426 157.397 154.018 156.885C154.626 156.357 154.93 155.685 154.93 154.869C154.93 154.229 154.754 153.709 154.402 153.309C154.05 152.909 153.61 152.605 153.082 152.397C152.554 152.189 151.842 151.965 150.946 151.725C149.842 151.437 148.954 151.149 148.282 150.861C147.626 150.573 147.058 150.125 146.578 149.517C146.114 148.893 145.882 148.061 145.882 147.021C145.882 146.109 146.114 145.301 146.578 144.597C147.042 143.893 147.69 143.349 148.522 142.965C149.37 142.581 150.338 142.389 151.426 142.389C152.994 142.389 154.274 142.781 155.266 143.565C156.274 144.349 156.842 145.389 156.97 146.685H154.57C154.49 146.045 154.154 145.485 153.562 145.005C152.97 144.509 152.186 144.261 151.21 144.261C150.298 144.261 149.554 144.501 148.978 144.981C148.402 145.445 148.114 146.101 148.114 146.949C148.114 147.557 148.282 148.053 148.618 148.437C148.97 148.821 149.394 149.117 149.89 149.325C150.402 149.517 151.114 149.741 152.026 149.997C153.13 150.301 154.018 150.605 154.69 150.909C155.362 151.197 155.938 151.653 156.418 152.277C156.898 152.885 157.138 153.717 157.138 154.773C157.138 155.589 156.922 156.357 156.49 157.077C156.058 157.797 155.418 158.381 154.57 158.829C153.722 159.277 152.722 159.501 151.57 159.501Z" fill="white"/>
<path d="M66.7633 178.807V179.731H61.9753V178.807H66.7633ZM74.4047 177.751C74.4047 178.447 74.1647 179.027 73.6847 179.491C73.2127 179.947 72.4887 180.175 71.5127 180.175H69.9047V183.667H68.8127V175.303H71.5127C72.4567 175.303 73.1727 175.531 73.6607 175.987C74.1567 176.443 74.4047 177.031 74.4047 177.751ZM71.5127 179.275C72.1207 179.275 72.5687 179.143 72.8567 178.879C73.1447 178.615 73.2887 178.239 73.2887 177.751C73.2887 176.719 72.6967 176.203 71.5127 176.203H69.9047V179.275H71.5127ZM79.5539 183.751C78.7779 183.751 78.0699 183.571 77.4299 183.211C76.7899 182.843 76.2819 182.335 75.9059 181.687C75.5379 181.031 75.3539 180.295 75.3539 179.479C75.3539 178.663 75.5379 177.931 75.9059 177.283C76.2819 176.627 76.7899 176.119 77.4299 175.759C78.0699 175.391 78.7779 175.207 79.5539 175.207C80.3379 175.207 81.0499 175.391 81.6899 175.759C82.3299 176.119 82.8339 176.623 83.2019 177.271C83.5699 177.919 83.7539 178.655 83.7539 179.479C83.7539 180.303 83.5699 181.039 83.2019 181.687C82.8339 182.335 82.3299 182.843 81.6899 183.211C81.0499 183.571 80.3379 183.751 79.5539 183.751ZM79.5539 182.803C80.1379 182.803 80.6619 182.667 81.1259 182.395C81.5979 182.123 81.9659 181.735 82.2299 181.231C82.5019 180.727 82.6379 180.143 82.6379 179.479C82.6379 178.807 82.5019 178.223 82.2299 177.727C81.9659 177.223 81.6019 176.835 81.1379 176.563C80.6739 176.291 80.1459 176.155 79.5539 176.155C78.9619 176.155 78.4339 176.291 77.9699 176.563C77.5059 176.835 77.1379 177.223 76.8659 177.727C76.6019 178.223 76.4699 178.807 76.4699 179.479C76.4699 180.143 76.6019 180.727 76.8659 181.231C77.1379 181.735 77.5059 182.123 77.9699 182.395C78.4419 182.667 78.9699 182.803 79.5539 182.803ZM89.5995 183.667L87.6075 180.247H86.2875V183.667H85.1955V175.303H87.8955C88.5275 175.303 89.0595 175.411 89.4915 175.627C89.9315 175.843 90.2595 176.135 90.4755 176.503C90.6915 176.871 90.7995 177.291 90.7995 177.763C90.7995 178.339 90.6315 178.847 90.2955 179.287C89.9675 179.727 89.4715 180.019 88.8075 180.163L90.9075 183.667H89.5995ZM86.2875 179.371H87.8955C88.4875 179.371 88.9315 179.227 89.2275 178.939C89.5235 178.643 89.6715 178.251 89.6715 177.763C89.6715 177.267 89.5235 176.883 89.2275 176.611C88.9395 176.339 88.4955 176.203 87.8955 176.203H86.2875V179.371ZM97.6443 175.303V176.191H95.3643V183.667H94.2723V176.191H91.9803V175.303H97.6443ZM103.716 175.303V176.191H100.08V179.011H103.032V179.899H100.08V183.667H98.9885V175.303H103.716ZM108.827 183.751C108.051 183.751 107.343 183.571 106.703 183.211C106.063 182.843 105.555 182.335 105.179 181.687C104.811 181.031 104.627 180.295 104.627 179.479C104.627 178.663 104.811 177.931 105.179 177.283C105.555 176.627 106.063 176.119 106.703 175.759C107.343 175.391 108.051 175.207 108.827 175.207C109.611 175.207 110.323 175.391 110.963 175.759C111.603 176.119 112.107 176.623 112.475 177.271C112.843 177.919 113.027 178.655 113.027 179.479C113.027 180.303 112.843 181.039 112.475 181.687C112.107 182.335 111.603 182.843 110.963 183.211C110.323 183.571 109.611 183.751 108.827 183.751ZM108.827 182.803C109.411 182.803 109.935 182.667 110.399 182.395C110.871 182.123 111.239 181.735 111.503 181.231C111.775 180.727 111.911 180.143 111.911 179.479C111.911 178.807 111.775 178.223 111.503 177.727C111.239 177.223 110.875 176.835 110.411 176.563C109.947 176.291 109.419 176.155 108.827 176.155C108.235 176.155 107.707 176.291 107.243 176.563C106.779 176.835 106.411 177.223 106.139 177.727C105.875 178.223 105.743 178.807 105.743 179.479C105.743 180.143 105.875 180.727 106.139 181.231C106.411 181.735 106.779 182.123 107.243 182.395C107.715 182.667 108.243 182.803 108.827 182.803ZM115.561 182.779H118.489V183.667H114.469V175.303H115.561V182.779ZM120.741 175.303V183.667H119.649V175.303H120.741ZM126.394 183.751C125.618 183.751 124.91 183.571 124.27 183.211C123.63 182.843 123.122 182.335 122.746 181.687C122.378 181.031 122.194 180.295 122.194 179.479C122.194 178.663 122.378 177.931 122.746 177.283C123.122 176.627 123.63 176.119 124.27 175.759C124.91 175.391 125.618 175.207 126.394 175.207C127.178 175.207 127.89 175.391 128.53 175.759C129.17 176.119 129.674 176.623 130.042 177.271C130.41 177.919 130.594 178.655 130.594 179.479C130.594 180.303 130.41 181.039 130.042 181.687C129.674 182.335 129.17 182.843 128.53 183.211C127.89 183.571 127.178 183.751 126.394 183.751ZM126.394 182.803C126.978 182.803 127.502 182.667 127.966 182.395C128.438 182.123 128.806 181.735 129.07 181.231C129.342 180.727 129.478 180.143 129.478 179.479C129.478 178.807 129.342 178.223 129.07 177.727C128.806 177.223 128.442 176.835 127.978 176.563C127.514 176.291 126.986 176.155 126.394 176.155C125.802 176.155 125.274 176.291 124.81 176.563C124.346 176.835 123.978 177.223 123.706 177.727C123.442 178.223 123.31 178.807 123.31 179.479C123.31 180.143 123.442 180.727 123.706 181.231C123.978 181.735 124.346 182.123 124.81 182.395C125.282 182.667 125.81 182.803 126.394 182.803ZM136.595 178.807V179.731H131.807V178.807H136.595Z" fill="white"/>
</g>
<g filter="url(#filter1_d_18_8)">
<path d="M105.697 54.915C105.037 54.165 104.347 53.325 103.627 52.395C102.937 51.465 102.262 50.535 101.602 49.605C100.972 48.675 100.402 47.82 99.8922 47.04C99.4122 46.26 99.0522 45.645 98.8122 45.195C98.5122 45.645 98.0922 46.32 97.5522 47.22C97.0122 48.09 96.4272 49.005 95.7972 49.965C95.1972 50.925 94.5972 51.855 93.9972 52.755C93.4272 53.685 92.9472 54.405 92.5572 54.915C91.8972 54.165 91.1772 53.49 90.3972 52.89C89.6472 52.29 88.8672 51.735 88.0572 51.225C87.2472 50.715 86.4522 50.25 85.6722 49.83C84.8922 49.38 84.1722 48.96 83.5122 48.57C83.5722 48.21 83.6622 47.535 83.7822 46.545C83.9322 45.525 84.0072 44.46 84.0072 43.35C84.0072 41.91 83.9472 40.29 83.8272 38.49C83.7372 36.66 83.5722 34.815 83.3322 32.955C83.1222 31.065 82.8522 29.235 82.5222 27.465C82.2222 25.695 81.8472 24.12 81.3972 22.74C80.9772 21.33 80.4972 20.205 79.9572 19.365C79.4472 18.495 78.8772 18.045 78.2472 18.015C79.5072 18.015 80.5422 18.075 81.3522 18.195C82.1922 18.315 82.8822 18.48 83.4222 18.69C83.9622 18.87 84.3822 19.11 84.6822 19.41C85.0122 19.68 85.3122 19.98 85.5822 20.31C86.1222 19.77 86.5722 19.365 86.9322 19.095C87.3222 18.825 87.6822 18.63 88.0122 18.51C88.3722 18.36 88.7322 18.27 89.0922 18.24C89.4822 18.18 89.9322 18.105 90.4422 18.015C90.0822 18.525 89.7822 19.095 89.5422 19.725C89.3322 20.325 89.2272 20.94 89.2272 21.57C89.2272 21.72 89.2272 21.855 89.2272 21.975C89.2272 22.095 89.2422 22.23 89.2722 22.38L90.8472 45.825L92.5122 47.58L96.1122 41.37V33C96.1122 31.5 96.0822 30.3 96.0222 29.4C95.9922 28.5 95.9022 27.765 95.7522 27.195C95.6322 26.595 95.4372 26.085 95.1672 25.665C94.9272 25.245 94.5972 24.78 94.1772 24.27C95.5272 23.34 96.5622 22.245 97.2822 20.985C98.0022 19.695 98.5272 18.435 98.8572 17.205C99.3072 18.465 99.9072 19.74 100.657 21.03C101.407 22.32 102.427 23.4 103.717 24.27C103.417 24.6 103.147 24.93 102.907 25.26C102.667 25.59 102.457 26.01 102.277 26.52C102.097 27 101.962 27.63 101.872 28.41C101.782 29.16 101.737 30.135 101.737 31.335V41.415L105.652 47.58L107.272 45.87L108.982 22.38C109.012 22.23 109.027 22.065 109.027 21.885C109.057 21.705 109.072 21.525 109.072 21.345C109.072 20.625 108.937 19.95 108.667 19.32C108.397 18.69 107.962 18.255 107.362 18.015C107.872 18.195 108.397 18.33 108.937 18.42C109.477 18.51 110.002 18.585 110.512 18.645C111.052 18.675 111.547 18.69 111.997 18.69C112.477 18.69 112.897 18.69 113.257 18.69C113.977 18.69 114.622 18.66 115.192 18.6C115.792 18.51 116.377 18.435 116.947 18.375C117.547 18.285 118.177 18.21 118.837 18.15C119.497 18.06 120.247 18.015 121.087 18.015C120.187 18.075 119.347 18.45 118.567 19.14C117.817 19.8 117.157 20.655 116.587 21.705C116.047 22.725 115.612 23.895 115.282 25.215C114.952 26.505 114.787 27.81 114.787 29.13C114.787 31.26 115.252 33.15 116.182 34.8C115.432 35.82 114.832 36.975 114.382 38.265C113.962 39.525 113.752 40.83 113.752 42.18C113.752 43.23 113.812 44.28 113.932 45.33C114.052 46.38 114.202 47.385 114.382 48.345C113.632 48.795 112.837 49.305 111.997 49.875C111.157 50.415 110.332 50.97 109.522 51.54C108.742 52.14 108.007 52.725 107.317 53.295C106.657 53.865 106.117 54.405 105.697 54.915Z" fill="url(#paint2_linear_18_8)"/>
</g>
<g filter="url(#filter2_d_18_8)">
<path d="M88.1843 120.189C88.7542 119.979 89.4291 119.573 90.2088 118.973C90.9886 118.403 91.7833 117.712 92.593 116.902C93.4027 116.122 94.1673 115.281 94.887 114.381C95.6366 113.481 96.2513 112.596 96.7309 111.725C96.7608 111.365 96.7906 111.065 96.8205 110.825C96.8504 110.585 96.8653 110.315 96.8652 110.015C96.8951 109.715 96.91 109.355 96.9098 108.935C96.9396 108.485 96.9544 107.885 96.9541 107.135C96.9536 106.055 96.9232 104.99 96.8628 103.94C96.8323 102.89 96.742 101.915 96.5916 101.015C96.4712 100.115 96.2909 99.3205 96.0506 98.6306C95.8104 97.9407 95.5101 97.4308 95.15 97.101C95.8696 95.9607 96.349 94.5955 96.5884 93.0054C96.8277 91.3853 96.947 89.7203 96.9463 88.0103C96.9458 86.7503 96.9154 85.5953 96.855 84.5453C96.7945 83.4953 96.7491 82.4603 96.7187 81.4404C96.3287 81.4405 95.9987 81.4106 95.7287 81.3507C95.4886 81.2608 95.1886 81.171 94.8286 81.0811C94.4985 80.9912 94.0485 80.9014 93.4784 80.8117C92.9384 80.7219 92.2034 80.6472 91.2734 80.5875C91.5132 80.1374 91.783 79.7023 92.0828 79.2822C92.3827 78.8621 92.6975 78.442 93.0273 78.0218C93.1173 77.9018 93.3122 77.8267 93.6122 77.7966C93.9422 77.7665 94.3322 77.7513 94.7822 77.7511C95.2922 77.7509 95.9222 77.7807 96.6723 77.8404C97.4223 77.8701 98.2023 77.9148 99.0123 77.9744C99.8223 78.0041 100.617 78.0338 101.397 78.0635C102.177 78.0932 102.837 78.1079 103.377 78.1077C104.397 78.1073 105.042 78.017 105.312 77.8369C105.222 78.0769 105.057 78.347 104.818 78.6471C104.608 78.9172 104.383 79.2173 104.143 79.5474C103.903 79.8775 103.693 80.2225 103.513 80.5826C103.333 80.9127 103.244 81.2577 103.244 81.6177C103.244 82.5177 103.215 83.4927 103.155 84.5428C103.095 85.5628 103.066 86.7028 103.066 87.9628C103.067 89.6728 103.173 91.3378 103.383 92.9577C103.594 94.5776 104.03 95.9574 104.69 97.0971C104.21 98.2673 103.866 99.7075 103.657 101.418C103.477 103.098 103.388 104.883 103.389 106.773C103.39 108.393 103.465 109.728 103.616 110.778C103.796 111.798 104.111 112.442 104.561 112.712L104.561 112.937C103.812 113.357 102.822 113.958 101.592 114.738C100.362 115.519 99.0728 116.359 97.7231 117.26C96.4035 118.19 95.0989 119.121 93.8093 120.052C92.5196 120.982 91.44 121.807 90.5703 122.528L88.1843 120.189Z" fill="url(#paint3_linear_18_8)"/>
</g>
<g filter="url(#filter3_d_18_8)">
<path d="M115.292 75.25C114.992 75.0667 114.684 74.8833 114.367 74.7C114.067 74.5 113.734 74.325 113.367 74.175C113.017 74.025 112.634 73.9 112.217 73.8C111.817 73.7 111.367 73.65 110.867 73.65C110.901 73.3833 110.951 73.0417 111.017 72.625C111.101 72.1917 111.184 71.6667 111.267 71.05C111.351 70.4167 111.426 69.6917 111.492 68.875C111.559 68.0417 111.592 67.1 111.592 66.05C111.592 65.5333 111.584 64.8917 111.567 64.125C111.551 63.3583 111.517 62.5917 111.467 61.825C111.434 61.0583 111.384 60.3583 111.317 59.725C111.251 59.075 111.167 58.6167 111.067 58.35C111.134 58.35 111.192 58.3583 111.242 58.375C111.309 58.375 111.367 58.375 111.417 58.375C112.317 58.375 113.201 58.2167 114.067 57.9C114.934 57.5833 115.742 57.1583 116.492 56.625C116.759 56.8083 117.076 56.9833 117.442 57.15C117.826 57.3 118.226 57.4417 118.642 57.575C119.076 57.6917 119.509 57.8 119.942 57.9C120.376 58 120.776 58.0833 121.142 58.15C120.776 58.85 120.234 59.3917 119.517 59.775C118.801 60.1417 118.042 60.325 117.242 60.325C116.809 60.325 116.392 60.2583 115.992 60.125C115.592 59.9917 115.234 59.7833 114.917 59.5C114.967 59.9333 114.992 60.35 114.992 60.75C114.992 60.9667 114.984 61.25 114.967 61.6C114.967 61.9333 114.959 62.2833 114.942 62.65C114.942 63 114.934 63.35 114.917 63.7C114.917 64.0333 114.917 64.3083 114.917 64.525L117.967 62.625C118.367 63.0917 118.817 63.4833 119.317 63.8C119.817 64.1 120.367 64.35 120.967 64.55C120.834 65.1333 120.734 65.75 120.667 66.4C120.617 67.0333 120.592 67.675 120.592 68.325C120.592 69.325 120.634 70.275 120.717 71.175C120.817 72.0583 120.909 72.8083 120.992 73.425C120.409 73.425 119.826 73.4833 119.242 73.6C118.659 73.7167 118.109 73.8667 117.592 74.05C117.092 74.2333 116.634 74.4333 116.217 74.65C115.817 74.8667 115.509 75.0667 115.292 75.25ZM116.042 72.6C116.092 72.45 116.192 72.3167 116.342 72.2C116.492 72.0667 116.642 71.95 116.792 71.85C116.959 71.75 117.109 71.675 117.242 71.625C117.376 71.5583 117.459 71.5083 117.492 71.475V65.275L114.867 66.975V71.725L116.042 72.6Z" fill="url(#paint4_linear_18_8)"/>
</g>
<g filter="url(#filter4_d_18_8)">
<path d="M83.2169 56.625C83.8002 57.0083 84.4336 57.3667 85.1169 57.7C85.8169 58.0333 86.6586 58.2083 87.6419 58.225C87.6086 58.4917 87.5502 58.8417 87.4669 59.275C87.4002 59.6917 87.3252 60.2167 87.2419 60.85C87.1586 61.4667 87.0836 62.1917 87.0169 63.025C86.9502 63.8417 86.9169 64.775 86.9169 65.825C86.9169 66.3417 86.9252 66.9833 86.9419 67.75C86.9586 68.5167 86.9836 69.2833 87.0169 70.05C87.0669 70.8167 87.1252 71.525 87.1919 72.175C87.2586 72.8083 87.3419 73.2583 87.4419 73.525C87.3752 73.525 87.3086 73.525 87.2419 73.525C87.1919 73.5083 87.1419 73.5 87.0919 73.5C86.1919 73.5 85.3086 73.6583 84.4419 73.975C83.5752 74.2917 82.7669 74.7167 82.0169 75.25C81.7336 75.0833 81.4002 74.925 81.0169 74.775C80.6336 74.6083 80.2336 74.4667 79.8169 74.35C79.4169 74.2167 79.0002 74.1 78.5669 74C78.1502 73.8833 77.7502 73.7917 77.3669 73.725C77.7336 73.025 78.2752 72.4917 78.9919 72.125C79.7086 71.7417 80.4669 71.55 81.2669 71.55C81.7002 71.55 82.1169 71.6167 82.5169 71.75C82.9169 71.8833 83.2752 72.0917 83.5919 72.375C83.5419 71.9583 83.5169 71.5417 83.5169 71.125C83.5169 70.9083 83.5169 70.6333 83.5169 70.3C83.5336 69.95 83.5419 69.6 83.5419 69.25C83.5586 68.8833 83.5669 68.5333 83.5669 68.2C83.5836 67.85 83.5919 67.5667 83.5919 67.35L80.5419 69.25C80.1419 68.7833 79.6919 68.4 79.1919 68.1C78.6919 67.7833 78.1419 67.525 77.5419 67.325C77.6752 66.7417 77.7669 66.1333 77.8169 65.5C77.8836 64.85 77.9169 64.2 77.9169 63.55C77.9169 62.55 77.8669 61.6083 77.7669 60.725C77.6836 59.825 77.6002 59.0667 77.5169 58.45C78.0836 58.45 78.6586 58.3917 79.2419 58.275C79.8252 58.1417 80.3669 57.9833 80.8669 57.8C81.3836 57.6167 81.8419 57.425 82.2419 57.225C82.6586 57.0083 82.9836 56.8083 83.2169 56.625ZM82.4669 59.275C82.4169 59.425 82.3169 59.5667 82.1669 59.7C82.0169 59.8167 81.8586 59.925 81.6919 60.025C81.5419 60.125 81.3919 60.2083 81.2419 60.275C81.1086 60.3417 81.0336 60.3833 81.0169 60.4V66.6L83.6419 64.9V60.15L82.4669 59.275Z" fill="url(#paint5_linear_18_8)"/>
</g>
<path d="M93.6572 66.7098C94.3857 65.5796 95.2532 64.4754 96.2598 63.397C97.308 62.2804 98.4451 61.4277 99.6711 60.8391C99.8973 61.1689 100.241 61.5638 100.702 62.0237C101.203 62.4854 101.724 62.9478 102.265 63.4111C102.845 63.8761 103.387 64.3194 103.89 64.7411C104.434 65.1245 104.843 65.402 105.116 65.5737C103.716 66.4753 102.517 67.3654 101.519 68.2439C100.563 69.0842 99.7163 70.1693 98.9793 71.4993C98.7514 71.2094 98.387 70.8337 97.8861 70.3721C97.4234 69.9521 96.9217 69.5105 96.3808 69.0472C95.8399 68.5839 95.3182 68.1414 94.8155 67.7198C94.3129 67.2981 93.9268 66.9615 93.6572 66.7098Z" fill="url(#paint6_linear_18_8)"/>
<path d="M93.6572 66.7098C94.3857 65.5796 95.2532 64.4754 96.2598 63.397C97.308 62.2804 98.4451 61.4277 99.6711 60.8391C99.8973 61.1689 100.241 61.5638 100.702 62.0237C101.203 62.4854 101.724 62.9478 102.265 63.4111C102.845 63.8761 103.387 64.3194 103.89 64.7411C104.434 65.1245 104.843 65.402 105.116 65.5737C103.716 66.4753 102.517 67.3654 101.519 68.2439C100.563 69.0842 99.7163 70.1693 98.9793 71.4993C98.7514 71.2094 98.387 70.8337 97.8861 70.3721C97.4234 69.9521 96.9217 69.5105 96.3808 69.0472C95.8399 68.5839 95.3182 68.1414 94.8155 67.7198C94.3129 67.2981 93.9268 66.9615 93.6572 66.7098Z" fill="url(#paint7_linear_18_8)" fill-opacity="0.86"/>
<defs>
<filter id="filter0_d_18_8" x="-4" y="0" width="207" height="208" filterUnits="userSpaceOnUse" color-interpolation-filters="sRGB">
<feFlood flood-opacity="0" result="BackgroundImageFix"/>
<feColorMatrix in="SourceAlpha" type="matrix" values="0 0 0 0 0 0 0 0 0 0 0 0 0 0 0 0 0 0 127 0" result="hardAlpha"/>
<feOffset dy="4"/>
<feGaussianBlur stdDeviation="2"/>
<feComposite in2="hardAlpha" operator="out"/>
<feColorMatrix type="matrix" values="0 0 0 0 0 0 0 0 0 0 0 0 0 0 0 0 0 0 0.25 0"/>
<feBlend mode="normal" in2="BackgroundImageFix" result="effect1_dropShadow_18_8"/>
<feBlend mode="normal" in="SourceGraphic" in2="effect1_dropShadow_18_8" result="shape"/>
</filter>
<filter id="filter1_d_18_8" x="74.2472" y="17.205" width="50.84" height="45.71" filterUnits="userSpaceOnUse" color-interpolation-filters="sRGB">
<feFlood flood-opacity="0" result="BackgroundImageFix"/>
<feColorMatrix in="SourceAlpha" type="matrix" values="0 0 0 0 0 0 0 0 0 0 0 0 0 0 0 0 0 0 127 0" result="hardAlpha"/>
<feOffset dy="4"/>
<feGaussianBlur stdDeviation="2"/>
<feComposite in2="hardAlpha" operator="out"/>
<feColorMatrix type="matrix" values="0 0 0 0 0 0 0 0 0 0 0 0 0 0 0 0 0 0 0.25 0"/>
<feBlend mode="normal" in2="BackgroundImageFix" result="effect1_dropShadow_18_8"/>
<feBlend mode="normal" in="SourceGraphic" in2="effect1_dropShadow_18_8" result="shape"/>
</filter>
<filter id="filter2_d_18_8" x="84.1672" y="77.7469" width="25.163" height="52.7819" filterUnits="userSpaceOnUse" color-interpolation-filters="sRGB">
<feFlood flood-opacity="0" result="BackgroundImageFix"/>
<feColorMatrix in="SourceAlpha" type="matrix" values="0 0 0 0 0 0 0 0 0 0 0 0 0 0 0 0 0 0 127 0" result="hardAlpha"/>
<feOffset dy="4"/>
<feGaussianBlur stdDeviation="2"/>
<feComposite in2="hardAlpha" operator="out"/>
<feColorMatrix type="matrix" values="0 0 0 0 0 0 0 0 0 0 0 0 0 0 0 0 0 0 0.25 0"/>
<feBlend mode="normal" in2="BackgroundImageFix" result="effect1_dropShadow_18_8"/>
<feBlend mode="normal" in="SourceGraphic" in2="effect1_dropShadow_18_8" result="shape"/>
</filter>
<filter id="filter3_d_18_8" x="106.867" y="56.625" width="18.275" height="26.625" filterUnits="userSpaceOnUse" color-interpolation-filters="sRGB">
<feFlood flood-opacity="0" result="BackgroundImageFix"/>
<feColorMatrix in="SourceAlpha" type="matrix" values="0 0 0 0 0 0 0 0 0 0 0 0 0 0 0 0 0 0 127 0" result="hardAlpha"/>
<feOffset dy="4"/>
<feGaussianBlur stdDeviation="2"/>
<feComposite in2="hardAlpha" operator="out"/>
<feColorMatrix type="matrix" values="0 0 0 0 0 0 0 0 0 0 0 0 0 0 0 0 0 0 0.25 0"/>
<feBlend mode="normal" in2="BackgroundImageFix" result="effect1_dropShadow_18_8"/>
<feBlend mode="normal" in="SourceGraphic" in2="effect1_dropShadow_18_8" result="shape"/>
</filter>
<filter id="filter4_d_18_8" x="73.3669" y="56.625" width="18.275" height="26.625" filterUnits="userSpaceOnUse" color-interpolation-filters="sRGB">
<feFlood flood-opacity="0" result="BackgroundImageFix"/>
<feColorMatrix in="SourceAlpha" type="matrix" values="0 0 0 0 0 0 0 0 0 0 0 0 0 0 0 0 0 0 127 0" result="hardAlpha"/>
<feOffset dy="4"/>
<feGaussianBlur stdDeviation="2"/>
<feComposite in2="hardAlpha" operator="out"/>
<feColorMatrix type="matrix" values="0 0 0 0 0 0 0 0 0 0 0 0 0 0 0 0 0 0 0.25 0"/>
<feBlend mode="normal" in2="BackgroundImageFix" result="effect1_dropShadow_18_8"/>
<feBlend mode="normal" in="SourceGraphic" in2="effect1_dropShadow_18_8" result="shape"/>
</filter>
<linearGradient id="paint0_linear_18_8" x1="99.5" y1="0" x2="99.5" y2="136" gradientUnits="userSpaceOnUse">
<stop stop-color="white"/>
<stop offset="0.485" stop-color="#F9F9F9"/>
<stop offset="0.751" stop-color="#999999"/>
</linearGradient>
<linearGradient id="paint1_linear_18_8" x1="99.5" y1="0" x2="99.5" y2="136" gradientUnits="userSpaceOnUse">
<stop stop-color="white" stop-opacity="0"/>
<stop offset="0.0001" stop-color="white"/>
</linearGradient>
<linearGradient id="paint2_linear_18_8" x1="99.5" y1="9" x2="99.5" y2="64" gradientUnits="userSpaceOnUse">
<stop stop-color="white"/>
<stop offset="0.53" stop-color="#999999"/>
</linearGradient>
<linearGradient id="paint3_linear_18_8" x1="99.5" y1="69.0042" x2="99.523" y2="126.004" gradientUnits="userSpaceOnUse">
<stop offset="0.045" stop-color="white"/>
<stop offset="0.535" stop-color="#999999"/>
</linearGradient>
<linearGradient id="paint4_linear_18_8" x1="116" y1="51" x2="116" y2="82" gradientUnits="userSpaceOnUse">
<stop stop-color="white"/>
<stop offset="0.495" stop-color="#999999"/>
</linearGradient>
<linearGradient id="paint5_linear_18_8" x1="82.5" y1="51" x2="82.5" y2="82" gradientUnits="userSpaceOnUse">
<stop stop-color="white"/>
<stop offset="0.566" stop-color="#999999"/>
</linearGradient>
<linearGradient id="paint6_linear_18_8" x1="101.233" y1="11.3008" x2="98.2927" y2="80.7212" gradientUnits="userSpaceOnUse">
<stop offset="0.581" stop-color="#909090"/>
<stop offset="0.89" stop-color="#2A2A2A"/>
</linearGradient>
<linearGradient id="paint7_linear_18_8" x1="101.329" y1="11.3049" x2="98.1977" y2="85.2386" gradientUnits="userSpaceOnUse">
<stop offset="0.225" stop-color="white" stop-opacity="0"/>
<stop offset="0.87" stop-color="white"/>
</linearGradient>
</defs>
</svg>
