<svg width="150" height="150" viewBox="0 0 150 150" fill="none" xmlns="http://www.w3.org/2000/svg">
<g filter="url(#filter0_d_14_55)">
<circle cx="75" cy="51" r="48.5" stroke="url(#paint0_linear_14_55)" stroke-width="5" stroke-linecap="square"/>
<circle cx="75" cy="51" r="48.5" stroke="url(#paint1_linear_14_55)" stroke-opacity="0.2" stroke-width="5" stroke-linecap="square"/>
<path d="M29.0281 114.168C29.0281 115.56 28.5481 116.72 27.5881 117.648C26.6441 118.56 25.1961 119.016 23.2441 119.016H20.0281V126H17.8441V109.272H23.2441C25.1321 109.272 26.5641 109.728 27.5401 110.64C28.5321 111.552 29.0281 112.728 29.0281 114.168ZM23.2441 117.216C24.4601 117.216 25.3561 116.952 25.9321 116.424C26.5081 115.896 26.7961 115.144 26.7961 114.168C26.7961 112.104 25.6121 111.072 23.2441 111.072H20.0281V117.216H23.2441ZM40.5505 126L36.5665 119.16H33.9265V126H31.7425V109.272H37.1425C38.4065 109.272 39.4705 109.488 40.3345 109.92C41.2145 110.352 41.8705 110.936 42.3025 111.672C42.7345 112.408 42.9505 113.248 42.9505 114.192C42.9505 115.344 42.6145 116.36 41.9425 117.24C41.2865 118.12 40.2945 118.704 38.9665 118.992L43.1665 126H40.5505ZM33.9265 117.408H37.1425C38.3265 117.408 39.2145 117.12 39.8065 116.544C40.3985 115.952 40.6945 115.168 40.6945 114.192C40.6945 113.2 40.3985 112.432 39.8065 111.888C39.2305 111.344 38.3425 111.072 37.1425 111.072H33.9265V117.408ZM53.9281 126.168C52.3761 126.168 50.9601 125.808 49.6801 125.088C48.4001 124.352 47.3841 123.336 46.6321 122.04C45.8961 120.728 45.5281 119.256 45.5281 117.624C45.5281 115.992 45.8961 114.528 46.6321 113.232C47.3841 111.92 48.4001 110.904 49.6801 110.184C50.9601 109.448 52.3761 109.08 53.9281 109.08C55.4961 109.08 56.9201 109.448 58.2001 110.184C59.4801 110.904 60.4881 111.912 61.2241 113.208C61.9601 114.504 62.3281 115.976 62.3281 117.624C62.3281 119.272 61.9601 120.744 61.2241 122.04C60.4881 123.336 59.4801 124.352 58.2001 125.088C56.9201 125.808 55.4961 126.168 53.9281 126.168ZM53.9281 124.272C55.0961 124.272 56.1441 124 57.0721 123.456C58.0161 122.912 58.7521 122.136 59.2801 121.128C59.8241 120.12 60.0961 118.952 60.0961 117.624C60.0961 116.28 59.8241 115.112 59.2801 114.12C58.7521 113.112 58.0241 112.336 57.0961 111.792C56.1681 111.248 55.1121 110.976 53.9281 110.976C52.7441 110.976 51.6881 111.248 50.7601 111.792C49.8321 112.336 49.0961 113.112 48.5521 114.12C48.0241 115.112 47.7601 116.28 47.7601 117.624C47.7601 118.952 48.0241 120.12 48.5521 121.128C49.0961 122.136 49.8321 122.912 50.7601 123.456C51.7041 124 52.7601 124.272 53.9281 124.272ZM73.6353 109.272V121.632C73.6353 123.008 73.2113 124.112 72.3633 124.944C71.5153 125.76 70.3953 126.168 69.0033 126.168C67.5953 126.168 66.4673 125.752 65.6193 124.92C64.7713 124.072 64.3473 122.92 64.3473 121.464H66.5313C66.5473 122.28 66.7553 122.944 67.1553 123.456C67.5713 123.968 68.1873 124.224 69.0033 124.224C69.8193 124.224 70.4273 123.984 70.8273 123.504C71.2273 123.008 71.4273 122.384 71.4273 121.632V109.272H73.6353ZM80.1218 111.048V116.64H86.2178V118.44H80.1218V124.2H86.9378V126H77.9378V109.248H86.9378V111.048H80.1218ZM89.4265 117.624C89.4265 115.992 89.7945 114.528 90.5305 113.232C91.2665 111.92 92.2665 110.896 93.5305 110.16C94.8105 109.424 96.2265 109.056 97.7785 109.056C99.6025 109.056 101.195 109.496 102.555 110.376C103.915 111.256 104.907 112.504 105.531 114.12H102.915C102.451 113.112 101.779 112.336 100.899 111.792C100.035 111.248 98.9945 110.976 97.7785 110.976C96.6105 110.976 95.5625 111.248 94.6345 111.792C93.7065 112.336 92.9785 113.112 92.4505 114.12C91.9225 115.112 91.6585 116.28 91.6585 117.624C91.6585 118.952 91.9225 120.12 92.4505 121.128C92.9785 122.12 93.7065 122.888 94.6345 123.432C95.5625 123.976 96.6105 124.248 97.7785 124.248C98.9945 124.248 100.035 123.984 100.899 123.456C101.779 122.912 102.451 122.136 102.915 121.128H105.531C104.907 122.728 103.915 123.968 102.555 124.848C101.195 125.712 99.6025 126.144 97.7785 126.144C96.2265 126.144 94.8105 125.784 93.5305 125.064C92.2665 124.328 91.2665 123.312 90.5305 122.016C89.7945 120.72 89.4265 119.256 89.4265 117.624ZM119.078 109.272V111.048H114.518V126H112.334V111.048H107.75V109.272H119.078ZM127.07 126.168C125.966 126.168 124.974 125.976 124.094 125.592C123.23 125.192 122.55 124.648 122.054 123.96C121.558 123.256 121.302 122.448 121.286 121.536H123.614C123.694 122.32 124.014 122.984 124.574 123.528C125.15 124.056 125.982 124.32 127.07 124.32C128.11 124.32 128.926 124.064 129.518 123.552C130.126 123.024 130.43 122.352 130.43 121.536C130.43 120.896 130.254 120.376 129.902 119.976C129.55 119.576 129.11 119.272 128.582 119.064C128.054 118.856 127.342 118.632 126.446 118.392C125.342 118.104 124.454 117.816 123.782 117.528C123.126 117.24 122.558 116.792 122.078 116.184C121.614 115.56 121.382 114.728 121.382 113.688C121.382 112.776 121.614 111.968 122.078 111.264C122.542 110.56 123.19 110.016 124.022 109.632C124.87 109.248 125.838 109.056 126.926 109.056C128.494 109.056 129.774 109.448 130.766 110.232C131.774 111.016 132.342 112.056 132.47 113.352H130.07C129.99 112.712 129.654 112.152 129.062 111.672C128.47 111.176 127.686 110.928 126.71 110.928C125.798 110.928 125.054 111.168 124.478 111.648C123.902 112.112 123.614 112.768 123.614 113.616C123.614 114.224 123.782 114.72 124.118 115.104C124.47 115.488 124.894 115.784 125.39 115.992C125.902 116.184 126.614 116.408 127.526 116.664C128.63 116.968 129.518 117.272 130.19 117.576C130.862 117.864 131.438 118.32 131.918 118.944C132.398 119.552 132.638 120.384 132.638 121.44C132.638 122.256 132.422 123.024 131.99 123.744C131.558 124.464 130.918 125.048 130.07 125.496C129.222 125.944 128.222 126.168 127.07 126.168Z" fill="white"/>
<path d="M44.9914 135.545V136.392H40.6024V135.545H44.9914ZM51.9959 134.577C51.9959 135.215 51.7759 135.747 51.3359 136.172C50.9033 136.59 50.2396 136.799 49.3449 136.799H47.8709V140H46.8699V132.333H49.3449C50.2103 132.333 50.8666 132.542 51.3139 132.96C51.7686 133.378 51.9959 133.917 51.9959 134.577ZM49.3449 135.974C49.9023 135.974 50.3129 135.853 50.5769 135.611C50.8409 135.369 50.9729 135.024 50.9729 134.577C50.9729 133.631 50.4303 133.158 49.3449 133.158H47.8709V135.974H49.3449ZM56.7161 140.077C56.0047 140.077 55.3557 139.912 54.7691 139.582C54.1824 139.245 53.7167 138.779 53.3721 138.185C53.0347 137.584 52.8661 136.909 52.8661 136.161C52.8661 135.413 53.0347 134.742 53.3721 134.148C53.7167 133.547 54.1824 133.081 54.7691 132.751C55.3557 132.414 56.0047 132.245 56.7161 132.245C57.4347 132.245 58.0874 132.414 58.6741 132.751C59.2607 133.081 59.7227 133.543 60.0601 134.137C60.3974 134.731 60.5661 135.406 60.5661 136.161C60.5661 136.916 60.3974 137.591 60.0601 138.185C59.7227 138.779 59.2607 139.245 58.6741 139.582C58.0874 139.912 57.4347 140.077 56.7161 140.077ZM56.7161 139.208C57.2514 139.208 57.7317 139.083 58.1571 138.834C58.5897 138.585 58.9271 138.229 59.1691 137.767C59.4184 137.305 59.5431 136.77 59.5431 136.161C59.5431 135.545 59.4184 135.01 59.1691 134.555C58.9271 134.093 58.5934 133.737 58.1681 133.488C57.7427 133.239 57.2587 133.114 56.7161 133.114C56.1734 133.114 55.6894 133.239 55.2641 133.488C54.8387 133.737 54.5014 134.093 54.2521 134.555C54.0101 135.01 53.8891 135.545 53.8891 136.161C53.8891 136.77 54.0101 137.305 54.2521 137.767C54.5014 138.229 54.8387 138.585 55.2641 138.834C55.6967 139.083 56.1807 139.208 56.7161 139.208ZM65.9245 140L64.0985 136.865H62.8885V140H61.8875V132.333H64.3625C64.9419 132.333 65.4295 132.432 65.8255 132.63C66.2289 132.828 66.5295 133.096 66.7275 133.433C66.9255 133.77 67.0245 134.155 67.0245 134.588C67.0245 135.116 66.8705 135.582 66.5625 135.985C66.2619 136.388 65.8072 136.656 65.1985 136.788L67.1235 140H65.9245ZM62.8885 136.062H64.3625C64.9052 136.062 65.3122 135.93 65.5835 135.666C65.8549 135.395 65.9905 135.035 65.9905 134.588C65.9905 134.133 65.8549 133.781 65.5835 133.532C65.3195 133.283 64.9125 133.158 64.3625 133.158H62.8885V136.062ZM73.2989 132.333V133.147H71.2089V140H70.2079V133.147H68.1069V132.333H73.2989ZM78.8651 132.333V133.147H75.5321V135.732H78.2381V136.546H75.5321V140H74.5311V132.333H78.8651ZM83.5501 140.077C82.8387 140.077 82.1897 139.912 81.6031 139.582C81.0164 139.245 80.5507 138.779 80.2061 138.185C79.8687 137.584 79.7001 136.909 79.7001 136.161C79.7001 135.413 79.8687 134.742 80.2061 134.148C80.5507 133.547 81.0164 133.081 81.6031 132.751C82.1897 132.414 82.8387 132.245 83.5501 132.245C84.2687 132.245 84.9214 132.414 85.5081 132.751C86.0947 133.081 86.5567 133.543 86.8941 134.137C87.2314 134.731 87.4001 135.406 87.4001 136.161C87.4001 136.916 87.2314 137.591 86.8941 138.185C86.5567 138.779 86.0947 139.245 85.5081 139.582C84.9214 139.912 84.2687 140.077 83.5501 140.077ZM83.5501 139.208C84.0854 139.208 84.5657 139.083 84.9911 138.834C85.4237 138.585 85.7611 138.229 86.0031 137.767C86.2524 137.305 86.3771 136.77 86.3771 136.161C86.3771 135.545 86.2524 135.01 86.0031 134.555C85.7611 134.093 85.4274 133.737 85.0021 133.488C84.5767 133.239 84.0927 133.114 83.5501 133.114C83.0074 133.114 82.5234 133.239 82.0981 133.488C81.6727 133.737 81.3354 134.093 81.0861 134.555C80.8441 135.01 80.7231 135.545 80.7231 136.161C80.7231 136.77 80.8441 137.305 81.0861 137.767C81.3354 138.229 81.6727 138.585 82.0981 138.834C82.5307 139.083 83.0147 139.208 83.5501 139.208ZM89.7225 139.186H92.4065V140H88.7215V132.333H89.7225V139.186ZM94.4706 132.333V140H93.4696V132.333H94.4706ZM99.6526 140.077C98.9413 140.077 98.2923 139.912 97.7056 139.582C97.1189 139.245 96.6533 138.779 96.3086 138.185C95.9713 137.584 95.8026 136.909 95.8026 136.161C95.8026 135.413 95.9713 134.742 96.3086 134.148C96.6533 133.547 97.1189 133.081 97.7056 132.751C98.2923 132.414 98.9413 132.245 99.6526 132.245C100.371 132.245 101.024 132.414 101.611 132.751C102.197 133.081 102.659 133.543 102.997 134.137C103.334 134.731 103.503 135.406 103.503 136.161C103.503 136.916 103.334 137.591 102.997 138.185C102.659 138.779 102.197 139.245 101.611 139.582C101.024 139.912 100.371 140.077 99.6526 140.077ZM99.6526 139.208C100.188 139.208 100.668 139.083 101.094 138.834C101.526 138.585 101.864 138.229 102.106 137.767C102.355 137.305 102.48 136.77 102.48 136.161C102.48 135.545 102.355 135.01 102.106 134.555C101.864 134.093 101.53 133.737 101.105 133.488C100.679 133.239 100.195 133.114 99.6526 133.114C99.1099 133.114 98.6259 133.239 98.2006 133.488C97.7753 133.737 97.4379 134.093 97.1886 134.555C96.9466 135.01 96.8256 135.545 96.8256 136.161C96.8256 136.77 96.9466 137.305 97.1886 137.767C97.4379 138.229 97.7753 138.585 98.2006 138.834C98.6333 139.083 99.1173 139.208 99.6526 139.208ZM109.004 135.545V136.392H104.615V135.545H109.004Z" fill="white"/>
<g filter="url(#filter1_d_14_55)">
<path d="M51.3531 26.4109C51.3531 26.4109 49.9407 72.61 52.7654 74.7488C55.5901 76.8876 72.5383 76.8876 73.9507 74.7488C75.363 72.61 73.9507 17 73.9507 17M98.4314 27.6942C98.3144 32.5122 100.679 70.9992 96.5482 74.7488C92.4179 78.4984 79 83 76 78" stroke="url(#paint2_linear_14_55)" stroke-width="7"/>
<path d="M51.3531 26.4109C51.3531 26.4109 49.9407 72.61 52.7654 74.7488C55.5901 76.8876 72.5383 76.8876 73.9507 74.7488C75.363 72.61 73.9507 17 73.9507 17M98.4314 27.6942C98.3144 32.5122 100.679 70.9992 96.5482 74.7488C92.4179 78.4984 79 83 76 78" stroke="url(#paint3_linear_14_55)" stroke-opacity="0.86" stroke-width="7"/>
</g>
</g>
<defs>
<filter id="filter0_d_14_55" x="-4" y="0" width="158" height="158" filterUnits="userSpaceOnUse" color-interpolation-filters="sRGB">
<feFlood flood-opacity="0" result="BackgroundImageFix"/>
<feColorMatrix in="SourceAlpha" type="matrix" values="0 0 0 0 0 0 0 0 0 0 0 0 0 0 0 0 0 0 127 0" result="hardAlpha"/>
<feOffset dy="4"/>
<feGaussianBlur stdDeviation="2"/>
<feComposite in2="hardAlpha" operator="out"/>
<feColorMatrix type="matrix" values="0 0 0 0 0 0 0 0 0 0 0 0 0 0 0 0 0 0 0.25 0"/>
<feBlend mode="normal" in2="BackgroundImageFix" result="effect1_dropShadow_14_55"/>
<feBlend mode="normal" in="SourceGraphic" in2="effect1_dropShadow_14_55" result="shape"/>
</filter>
<filter id="filter1_d_14_55" x="46.5" y="16.9118" width="63" height="75.8053" filterUnits="userSpaceOnUse" color-interpolation-filters="sRGB">
<feFlood flood-opacity="0" result="BackgroundImageFix"/>
<feColorMatrix in="SourceAlpha" type="matrix" values="0 0 0 0 0 0 0 0 0 0 0 0 0 0 0 0 0 0 127 0" result="hardAlpha"/>
<feOffset dx="3" dy="5"/>
<feGaussianBlur stdDeviation="2"/>
<feComposite in2="hardAlpha" operator="out"/>
<feColorMatrix type="matrix" values="0 0 0 0 0 0 0 0 0 0 0 0 0 0 0 0 0 0 0.25 0"/>
<feBlend mode="normal" in2="BackgroundImageFix" result="effect1_dropShadow_14_55"/>
<feBlend mode="normal" in="SourceGraphic" in2="effect1_dropShadow_14_55" result="shape"/>
</filter>
<linearGradient id="paint0_linear_14_55" x1="75" y1="0" x2="75" y2="102" gradientUnits="userSpaceOnUse">
<stop stop-color="white"/>
<stop offset="0.485" stop-color="#F9F9F9"/>
<stop offset="0.751" stop-color="#999999"/>
</linearGradient>
<linearGradient id="paint1_linear_14_55" x1="75" y1="0" x2="75" y2="102" gradientUnits="userSpaceOnUse">
<stop stop-color="white" stop-opacity="0"/>
<stop offset="0.0001" stop-color="white"/>
</linearGradient>
<linearGradient id="paint2_linear_14_55" x1="74.6791" y1="17" x2="74.6791" y2="76.3581" gradientUnits="userSpaceOnUse">
<stop offset="0.581" stop-color="#909090"/>
<stop offset="0.89" stop-color="#2A2A2A"/>
</linearGradient>
<linearGradient id="paint3_linear_14_55" x1="75" y1="17" x2="75" y2="80.2172" gradientUnits="userSpaceOnUse">
<stop offset="0.225" stop-color="white" stop-opacity="0"/>
<stop offset="0.87" stop-color="white"/>
</linearGradient>
</defs>
</svg>
